<svg xmlns="http://www.w3.org/2000/svg" viewBox="0 0 1216 1216">
  <path fill="#cfcfcf" fill-rule="evenodd" d="M608 0c494 0 608 111.64 608 608s-111.72 608-608 608S0 1102 0 608 114 0 608 0zM240.54 603.25c-43.7 20.98-45.22 38.08 1.51 55.78 35.72 9.69 82.46 23.07 115.52 32.49a72.9 72.9 0 0 0 71.82-8.7c56.62-38.64 182.4-122.66 256.88-172.29 23.18-17.59 33.44-4.52 18.62 19-43.7 63.35-111.34 162.72-145.54 214.21a38.92 38.92 0 0 0 12.54 62.02c50.54 41.8 144.4 119.7 201.78 167.2 28.5 28.61 52.06 18.66 57.38-16.99 22.04-133.95 77.14-468.88 100.32-608.95 5.32-37.92-.76-60.23-56.24-32.83l-634.6 289.1v-.04z"/>
</svg>

