<svg xmlns="http://www.w3.org/2000/svg" version="1.2" viewBox="0 0 1216 1216">
  <path fill="#cfcfcf" fill-rule="evenodd" d="M608 0c494 0 608 111.64 608 608s-111.72 608-608 608S0 1102 0 608 114 0 608 0zm24.89 228.19c-19.99-.61-24.02.11-29.79 5.4-9.46 8.47-8.97 26.6.87 34.35 5.24 4.03 9.31 4.9 32.6 6.23 68.93 4.07 121.56 22.69 172.44 60.95 61.1 45.75 99.37 109.55 113.85 189.39 3.69 20.37 5.51 37.43 6.73 63.8.76 17.14 1.37 20.98 3.57 25.38 6.99 13.34 27.47 15.31 36.78 3.42 4.9-6.12 5.51-10.91 4.67-32.38-2.32-62.93-15.96-120.08-39.86-168.15-17.18-34.47-33.36-56.7-62.55-85.99-31.16-31.05-54.72-48.07-91.5-66.12-37.43-18.28-71.52-28.46-113.7-33.71a483.56 483.56 0 0 0-34.12-2.58zm-276.94 13c-11.67 2.43-26.26 11.17-57.91 34.69-19 14.25-45.11 39.75-51.26 50.05-14.21 24.43-13.38 45.14 3.91 92.87 29.72 81.81 73.11 160.66 130.15 236.7C490.01 801.12 627.5 907.1 799.71 978.08c21.96 9.08 29.07 10.56 46.25 9.69 20.86-.95 36.67-7.45 58.98-24.4 24.66-18.77 60-62.66 69.08-86.11 8.59-22.19 6.38-42.29-6.38-58.03-7.26-8.7-60.72-52.36-85.73-69.88-19.04-13.26-48.45-31.54-61.94-38.53-17.78-9.08-35.45-10.68-52.74-4.79-13.64 4.67-18.16 8.7-38.04 33.74-10.3 12.77-19.76 24.28-20.98 25.38-1.33 1.1-5.62 3.57-9.69 5.4-16.07 7.49-38 2.93-73.95-14.97-27.97-13.87-52.74-31.39-80.83-57.15-23.94-21.85-48.11-50.27-61.6-72.5-17.4-28.58-30.67-65.74-30.78-86.22 0-8.82 3.57-21.32 7.98-27.7 1.71-2.58 12.62-12.27 24.28-21.7 29.07-23.45 35.57-30.82 39.48-44.8 3.84-13-.23-30.51-12.39-54.19-21.2-41.46-86.07-124.53-109.4-139.95-3.8-2.47-10.41-5.89-14.71-7.37-8.85-3.19-22.69-4.52-30.67-2.81zm274.02 85.61c-5.89 8.97-5.17 19.76 1.82 27.7 4.56 5.28 11.17 7.75 23.18 8.74 33.25 2.7 69.69 13.6 94.35 28.31a186.67 186.67 0 0 1 68.44 71.29c14.21 25.99 22.42 59.47 22.42 91.24 0 20.6 2.85 28.2 12.27 32.98 5.66 2.96 15.81 3.19 20.6.76 4.41-2.36 9.58-7.98 11.17-12.16 1.71-4.41 1.71-31.05.11-45.64-4.52-39.86-17.78-77.03-38.99-108.64-37.77-56.2-95.42-90.78-169.9-101.69-29.3-4.41-39.1-2.85-45.49 7.11zm50.77 82.92c-10.3-.61-12.27-.38-16.91 1.98-12.39 6.35-15.85 23.64-6.88 34.31 4.9 5.78 9.42 7.49 24.55 9.35 32.11 3.91 51.11 15.92 61.94 39.1 5.02 10.94 7.94 22.69 9.54 39.52 1.37 12.62 3.19 17.29 9.08 21.7 8.09 6.27 21.47 6 28.69-.61 7.75-7.11 9.08-15.69 5.78-37.54-4.9-33.48-16.07-56.77-36.4-76.04-15.85-14.86-34.35-24.05-58.52-29.18-5.02-1.1-14.48-2.2-20.86-2.58z"/>
</svg>

