<svg xmlns="http://www.w3.org/2000/svg" baseProfile="tiny-ps" version="1.2" viewBox="0 0 1216 1216">
  <path fill="#cfcfcf" fill-rule="evenodd" d="M608 0c494 0 608 111.64 608 608s-111.72 608-608 608S0 1102 0 608 114 0 608 0zm269.27 337.25c-71.44-71.52-166.44-110.92-267.67-110.96-208.58 0-378.33 169.71-378.44 378.25 0 66.69 17.4 131.78 50.54 189.13l-53.69 196.04 200.6-52.59a377.93 377.93 0 0 0 180.84 46.02h.15c208.54 0 378.33-169.71 378.4-378.29.04-101.08-39.29-196.12-110.73-267.6zM609.6 919.26h-.15a314.22 314.22 0 0 1-160.06-43.81l-11.48-6.84-119.05 31.24 31.77-116.01-7.49-11.93a313.61 313.61 0 0 1-48.07-167.31c.08-173.36 141.17-314.41 314.64-314.41 84.02.04 162.98 32.79 222.38 92.23 59.36 59.43 92.07 138.43 92.04 222.45-.08 173.36-141.17 314.41-314.53 314.41zm172.52-235.49c-9.46-4.71-55.94-27.59-64.6-30.74-8.66-3.15-14.97-4.75-21.28 4.71-6.31 9.46-24.43 30.78-29.94 37.09-5.51 6.31-11.02 7.07-20.48 2.36-9.46-4.75-39.94-14.71-76.04-46.93-28.12-25.04-47.08-56.01-52.59-65.47-5.51-9.46-.61-14.59 4.14-19.3 4.26-4.22 9.46-11.02 14.17-16.53 4.71-5.55 6.31-9.46 9.46-15.77 3.15-6.31 1.56-11.86-.8-16.57-2.36-4.75-21.28-51.26-29.15-70.19-7.68-18.43-15.47-15.92-21.28-16.23-5.51-.27-11.82-.34-18.13-.34-6.31 0-16.53 2.39-25.19 11.86-8.66 9.46-33.1 32.3-33.1 78.85 0 46.51 33.86 91.47 38.61 97.77 4.71 6.31 66.65 101.76 161.5 142.73a551.64 551.64 0 0 0 53.92 19.91c22.65 7.18 43.24 6.16 59.55 3.72 18.16-2.7 55.94-22.88 63.84-44.95 7.87-22.08 7.87-41 5.51-44.92-2.36-3.95-8.66-6.31-18.13-11.06z"/>
</svg>