<?xml version="1.0" encoding="utf-8"?>
<!-- Generator: Adobe Illustrator 25.2.3, SVG Export Plug-In . SVG Version: 6.00 Build 0)  -->
<svg version="1.1" xmlns="http://www.w3.org/2000/svg" xmlns:xlink="http://www.w3.org/1999/xlink" x="0px" y="0px"
	 viewBox="0 0 136 136" style="enable-background:new 0 0 136 136;" xml:space="preserve">
<style type="text/css">
	.st0{fill:#F4F4F5;}
	.st1{fill:#170B45;}
	.st2{fill:#55edb1;}
</style>
<g id="Слой_1">
</g>
<g id="Слой_2">
	<g>
		<circle class="st0" cx="97.12" cy="97.12" r="38.88"/>
		<path class="st1" d="M97.78,99.81H33.44c-9.43,0-17.11-7.67-17.11-17.11V45.48c0-9.43,7.67-17.11,17.11-17.11h28.59l-2.08,6.23
			H33.44c-6,0-10.88,4.88-10.88,10.88V82.7c0,6,4.88,10.88,10.88,10.88h64.34c6,0,10.88-4.88,10.88-10.88V45.48
			c0-6-4.88-10.88-10.88-10.88H84.25l-2.08-6.23h15.61c9.43,0,17.11,7.67,17.11,17.11V82.7C114.89,92.13,107.21,99.81,97.78,99.81z"
			/>
		<rect x="12.24" y="109.78" class="st1" width="106.75" height="6.23"/>
		<path class="st2" d="M72.4,65.63c-1.8,0-3.33-1.34-3.57-3.12c-1.22-9.13-4.88-12.8-14.01-14.01c-1.78-0.24-3.12-1.77-3.12-3.56
			c0-1.8,1.34-3.33,3.12-3.57c9.13-1.22,12.8-4.88,14.01-14.01c0.24-1.78,1.77-3.12,3.56-3.12l0.31,0.01
			c1.66,0.14,3.04,1.43,3.26,3.11c1.22,9.12,4.88,12.79,14.01,14.01c1.78,0.24,3.12,1.77,3.12,3.56c0,1.81-1.34,3.33-3.12,3.57
			c-9.13,1.22-12.79,4.88-14.01,14.01C75.72,64.29,74.19,65.63,72.4,65.63z M64.78,44.94c3.4,1.72,5.89,4.22,7.61,7.61
			c1.72-3.4,4.22-5.89,7.61-7.61c-3.4-1.72-5.89-4.22-7.61-7.61C70.67,40.72,68.18,43.22,64.78,44.94z M75.01,28.19
			C75.01,28.19,75.01,28.19,75.01,28.19C75.01,28.19,75.01,28.19,75.01,28.19z"/>
		<circle class="st2" cx="91.3" cy="62.86" r="8.34"/>
	</g>
</g>
</svg>
