<?xml version="1.0" encoding="utf-8"?>
<!-- Generator: Adobe Illustrator 25.2.3, SVG Export Plug-In . SVG Version: 6.00 Build 0)  -->
<svg version="1.1" xmlns="http://www.w3.org/2000/svg" xmlns:xlink="http://www.w3.org/1999/xlink" x="0px" y="0px"
	 viewBox="0 0 136 136" style="enable-background:new 0 0 136 136;" xml:space="preserve">
<style type="text/css">
	.st0{fill:#F4F4F5;}
	.st1{fill:#170B45;}
	.st2{fill:#55edb1;}
</style>
<g id="Слой_1">
</g>
<g id="Слой_2">
	<g>
		<circle class="st0" cx="95.12" cy="97.12" r="38.88"/>
		<rect x="49.5" y="9.44" class="st0" width="35.99" height="14.58"/>
		<path class="st1" d="M88.04,114.61H47.45c-7.27,0-13.19-5.91-13.19-13.19V37.21c0-7.27,5.91-13.19,13.19-13.19h40.59
			c7.27,0,13.18,5.91,13.18,13.19v64.21C101.23,108.69,95.31,114.61,88.04,114.61z M47.45,30.25c-3.84,0-6.96,3.12-6.96,6.96v64.21
			c0,3.84,3.12,6.96,6.96,6.96h40.59c3.83,0,6.96-3.12,6.96-6.96V37.21c0-3.84-3.12-6.96-6.96-6.96H47.45z"/>
		<polygon class="st2" points="88.61,24.02 82.38,24.02 82.38,12.55 81.3,11.94 76.77,14.2 72.13,11.92 67.83,14.21 62.97,11.91 
			58.63,14.22 54.06,11.96 53.11,12.51 53.11,24.02 46.88,24.02 46.88,8.93 53.81,4.89 58.53,7.22 62.81,4.94 67.67,7.24 
			72.02,4.93 76.75,7.25 81.47,4.9 88.61,8.89 		"/>
		<path class="st1" d="M85.46,61.15H50.04c-1.88,0-3.4-1.53-3.4-3.4v-18.1c0-1.87,1.52-3.4,3.4-3.4h35.42c1.88,0,3.4,1.53,3.4,3.4
			v18.1C88.86,59.62,87.33,61.15,85.46,61.15z M52.87,54.92h29.76V42.48H52.87V54.92z"/>
		<g>
			<rect x="49.41" y="68.19" class="st2" width="14.91" height="6.23"/>
			<rect x="49.41" y="80.71" class="st2" width="14.91" height="6.23"/>
			<rect x="49.41" y="93.23" class="st2" width="14.91" height="6.23"/>
		</g>
		<g>
			<rect x="71.17" y="68.19" class="st2" width="14.91" height="6.23"/>
			<rect x="71.17" y="80.71" class="st2" width="14.91" height="6.23"/>
			<rect x="71.17" y="93.24" class="st2" width="14.91" height="6.23"/>
		</g>
	</g>
</g>
</svg>
