<?xml version="1.0" encoding="utf-8"?>
<!-- Generator: Adobe Illustrator 25.2.3, SVG Export Plug-In . SVG Version: 6.00 Build 0)  -->
<svg version="1.1" xmlns="http://www.w3.org/2000/svg" xmlns:xlink="http://www.w3.org/1999/xlink" x="0px" y="0px"
	 viewBox="0 0 136 136" style="enable-background:new 0 0 136 136;" xml:space="preserve">
<style type="text/css">
	.st0{fill:#F4F4F5;}
	.st1{fill:#170B45;}
	.st2{fill:#55edb1;}
</style>
<g id="Слой_1">
</g>
<g id="Слой_2">
	<g>
		<circle class="st0" cx="97.12" cy="93.24" r="38.88"/>
		<path class="st1" d="M77.6,115.59C77.59,115.59,77.59,115.59,77.6,115.59l-31.01,0c-4.02,0-7.79-1.57-10.63-4.41
			c-2.84-2.84-4.4-6.62-4.4-10.63l0.01-80.71c0-4.02,1.56-7.79,4.4-10.63c2.84-2.84,6.61-4.4,10.63-4.4c0,0,0,0,0,0l31.01,0
			c4.02,0,7.79,1.57,10.63,4.41c2.84,2.84,4.4,6.62,4.4,10.63l0,31.41l-6.23-4.15l0-27.26c0-2.35-0.92-4.56-2.58-6.23
			c-1.66-1.66-3.87-2.58-6.23-2.58l-31.01,0c0,0,0,0,0,0c-2.35,0-4.56,0.92-6.22,2.58c-1.66,1.66-2.58,3.87-2.58,6.23l-0.01,80.71
			c0,2.35,0.92,4.56,2.58,6.23c1.66,1.66,3.87,2.58,6.23,2.58l31.01,0c0,0,0,0,0,0c2.35,0,4.56-0.92,6.23-2.58
			c1.66-1.66,2.58-3.87,2.58-6.23V90.3l6.23,4.15v6.1c0,4.02-1.57,7.79-4.41,10.63C85.39,114.02,81.61,115.59,77.6,115.59z"/>
		<path class="st2" d="M108.08,112.46l-4.69-4.69c-2.03-2.03-2.21-5.25-0.43-7.5c5.08-6.41,4.54-15.62-1.25-21.42l-7.32-7.32
			l4.4-4.4l7.32,7.32c7.91,7.91,8.75,20.41,2.05,29.28l4.32,4.32L108.08,112.46z"/>
		<g>
			<path class="st2" d="M27.6,79.97c-2.1-0.28-4.3,0.36-5.91,1.97c-2.75,2.75-2.75,7.2,0,9.95l5.91,5.91V79.97z"/>
			<path class="st2" d="M27.6,60.22c-2.1-0.28-4.3,0.36-5.91,1.97c-2.75,2.75-2.75,7.2,0,9.95l5.91,5.91V60.22z"/>
			<path class="st2" d="M27.6,40.48c-2.1-0.28-4.3,0.36-5.91,1.97c-2.75,2.75-2.75,7.2,0,9.95l5.91,5.91V40.48z"/>
		</g>
		<path class="st1" d="M71.79,103.7H52.4c-1.72,0-3.11-1.39-3.11-3.11v0c0-1.72,1.39-3.11,3.11-3.11h19.39
			c1.72,0,3.11,1.39,3.11,3.11v0C74.91,102.3,73.51,103.7,71.79,103.7z"/>
		<path class="st1" d="M71.79,14.55H52.4c-1.72,0-3.11-1.39-3.11-3.11v0c0-1.72,1.39-3.11,3.11-3.11h19.39
			c1.72,0,3.11,1.39,3.11,3.11v0C74.91,13.15,73.51,14.55,71.79,14.55z"/>
		<path class="st2" d="M84.12,52.44c-3.96-3.96-10.4-3.96-14.35,0c-3.96,3.96-3.96,10.4,0,14.35l22.88,22.88v-8.81L74.17,62.39
			c-1.53-1.53-1.53-4.02,0-5.54c1.53-1.53,4.02-1.53,5.54,0l20.17,20.18l4.41-4.4L84.12,52.44z"/>
		<path class="st2" d="M81.19,123.88c-2.45-2.44-6.16-3.01-9.45-1.46c-2.85,1.35-6.27,0.75-8.5-1.48l-1.68-1.68h-8.81l6.08,6.09
			c4.09,4.09,10.34,5.17,15.57,2.71c0.67-0.32,1.7-0.45,2.4,0.24l7.75,7.7l4.39-4.42L81.19,123.88z"/>
	</g>
</g>
</svg>
