<svg xmlns="http://www.w3.org/2000/svg" viewBox="0 0 103 18">
  <path fill="#fff" d="M23.5 15.81V2.91h4.65c1.52 0 2.79.5 3.81 1.49a5.07 5.07 0 0 1 1.53 3.8v2.33a5 5 0 0 1-1.53 3.8 5.27 5.27 0 0 1-3.8 1.49zm3-10.6v8.3h1.45c.8 0 1.42-.27 1.87-.82.45-.54.67-1.27.67-2.16V8.19c0-.9-.22-1.61-.67-2.16a2.3 2.3 0 0 0-1.87-.81zM39.16 16a4.44 4.44 0 0 1-4.64-4.66V11c0-1.46.38-2.65 1.14-3.57.77-.93 1.86-1.38 3.29-1.38A4 4 0 0 1 42 7.22a4.42 4.42 0 0 1 1.11 3.17v1.57h-5.47l-.02.05c.06.5.26.9.6 1.21.34.32.79.48 1.35.48a5.57 5.57 0 0 0 2.65-.6l.7 1.83c-.42.3-.96.56-1.62.77a7.24 7.24 0 0 1-2.14.3zm-.21-7.64c-.43 0-.76.15-.97.46-.22.3-.35.71-.4 1.23l.03.04h2.58v-.23c0-.48-.1-.85-.3-1.11-.2-.26-.52-.4-.94-.4zm8.39 7.46h-3V1.99h3zm4.83 0h-3V7.29l3-1.06zm0-11.29-3 1.06v-2l3-1.07zm5.5 8.06 1.49-6.36h3.14l-3.11 9.59h-3.04l-3.12-9.59h3.15zM66.9 16a4.44 4.44 0 0 1-3.38-1.33c-.85-.88-1.27-2-1.27-3.33V11c0-1.46.39-2.65 1.15-3.57.77-.93 1.86-1.38 3.28-1.38a4 4 0 0 1 3.06 1.17c.74.78 1.1 1.84 1.1 3.17v1.57h-5.47l-.02.05c.07.5.27.9.6 1.21.34.32.8.48 1.35.48a5.57 5.57 0 0 0 2.65-.6l.71 1.83c-.42.3-.96.56-1.62.77a7.24 7.24 0 0 1-2.15.3zm-.22-7.64c-.43 0-.75.15-.97.46-.21.3-.34.71-.4 1.23l.04.04h2.57v-.23c0-.48-.1-.85-.3-1.11-.2-.26-.51-.4-.94-.4zm10.6.51s-1.62-.51-2.29.92v6.03H72V6.23h2.82l.08.95c.86-1.64 3.02-.85 3.02-.85zM82.6 16a4.44 4.44 0 0 1-3.38-1.33c-.84-.88-1.26-2-1.26-3.33V11c0-1.46.38-2.65 1.15-3.57.76-.93 1.86-1.38 3.28-1.38a4 4 0 0 1 3.06 1.17c.73.78 1.1 1.84 1.1 3.17v1.57h-5.47l-.02.05c.07.5.27.9.6 1.21.34.32.79.48 1.35.48a5.57 5.57 0 0 0 2.65-.6l.7 1.83c-.41.3-.95.56-1.62.77a7.24 7.24 0 0 1-2.14.3zm-.21-7.64c-.43 0-.76.15-.97.46-.22.3-.35.71-.4 1.23l.03.04h2.58v-.23c0-.48-.1-.85-.3-1.11-.2-.26-.52-.4-.94-.4zm10.18 4.76c0-.23-.13-.45-.4-.63s-.76-.36-1.47-.5a5.78 5.78 0 0 1-2.52-1.02 2.3 2.3 0 0 1-.85-1.89c0-.84.35-1.56 1.06-2.15a4.42 4.42 0 0 1 2.88-.88c1.28 0 2.3.29 3.05.86.76.57 1.12 1.3 1.08 2.2l-.02.06h-2.9c0-.38-.1-.66-.3-.86-.18-.2-.5-.3-.92-.3-.31 0-.57.1-.79.27a.8.8 0 0 0-.32.65c0 .26.13.47.37.65.25.18.74.34 1.49.48 1.17.23 2.03.57 2.6 1.03.56.46.84 1.1.84 1.94 0 .87-.38 1.58-1.14 2.13-.77.56-1.78.84-3.04.84-1.3 0-2.34-.33-3.1-1-.75-.65-1.11-1.4-1.08-2.2l.02-.06h2.7c.02.46.16.78.42.99.26.2.64.3 1.12.3.4 0 .7-.08.91-.24a.79.79 0 0 0 .31-.67zm7.66-9.57.01 2.68h1.62V8.3h-1.62v4.4c0 .34.07.59.21.74a.73.73 0 0 0 .56.22 4.02 4.02 0 0 0 .87-.09l.21 2.22c-.33.08-.63.13-.9.16a7.96 7.96 0 0 1-.93.05c-.99 0-1.73-.26-2.24-.79-.5-.52-.76-1.36-.76-2.5v-4.4H95.9V6.22h1.35v-1.6z"/>
  <path fill="#55edb1" d="M8.75.54a8.7 8.7 0 0 1 8.7 8.71 8.7 8.7 0 1 1-17.4 0A8.7 8.7 0 0 1 8.74.54z"/>
</svg>