<?xml version="1.0" encoding="utf-8"?>
<!-- Generator: Adobe Illustrator 25.2.3, SVG Export Plug-In . SVG Version: 6.00 Build 0)  -->
<svg version="1.1" xmlns="http://www.w3.org/2000/svg" xmlns:xlink="http://www.w3.org/1999/xlink" x="0px" y="0px"
	 viewBox="0 0 136 136" style="enable-background:new 0 0 136 136;" xml:space="preserve">
<style type="text/css">
	.st0{fill:#F4F4F5;}
	.st1{fill:#170B45;}
	.st2{fill:#55edb1;}
</style>
<g id="Слой_1">
</g>
<g id="Слой_2">
	<g>
		<circle class="st0" cx="97.12" cy="97.12" r="38.88"/>
		<rect x="102.41" y="34.35" class="st0" width="11.46" height="13.62"/>
		<rect x="22.1" y="21.46" class="st0" width="64.64" height="12.66"/>
		<rect x="22.1" y="51.51" class="st1" width="64.64" height="6.23"/>
		<rect x="22.1" y="31" class="st1" width="64.64" height="6.23"/>
		<g>
			<path class="st2" d="M48.05,99.51H35.53c-0.75,0-1.36-0.61-1.36-1.36v-3.51c0-0.75,0.61-1.36,1.36-1.36h12.51
				c0.75,0,1.36,0.61,1.36,1.36v3.51C49.41,98.9,48.8,99.51,48.05,99.51z"/>
			<path class="st2" d="M72.84,73.26H60.95c-0.75,0-1.36-0.61-1.36-1.36v-3.51c0-0.75,0.61-1.36,1.36-1.36h11.89
				c0.75,0,1.36,0.61,1.36,1.36v3.51C74.2,72.65,73.59,73.26,72.84,73.26z"/>
			<path class="st2" d="M73.65,99.51H60.14c-0.75,0-1.36-0.61-1.36-1.36v-3.51c0-0.75,0.61-1.36,1.36-1.36h13.52
				c0.75,0,1.36,0.61,1.36,1.36v3.51C75.01,98.9,74.41,99.51,73.65,99.51z"/>
			<path class="st2" d="M72.84,82.26H60.95c-0.75,0-1.36-0.61-1.36-1.36v-3.51c0-0.75,0.61-1.36,1.36-1.36h11.89
				c0.75,0,1.36,0.61,1.36,1.36v3.51C74.2,81.65,73.59,82.26,72.84,82.26z"/>
			<path class="st2" d="M38.68,102.65V90.14c0-0.75,0.61-1.36,1.36-1.36h3.51c0.75,0,1.36,0.61,1.36,1.36v12.51
				c0,0.75-0.61,1.36-1.36,1.36h-3.51C39.28,104.01,38.68,103.4,38.68,102.65z"/>
			<path class="st2" d="M44.43,81.68L34.75,72c-0.53-0.53-0.53-1.39,0-1.92l2.48-2.48c0.53-0.53,1.39-0.53,1.92,0l9.68,9.68
				c0.53,0.53,0.53,1.39,0,1.92l-2.48,2.48C45.82,82.22,44.96,82.22,44.43,81.68z"/>
			<path class="st2" d="M34.75,77.28l9.68-9.68c0.53-0.53,1.39-0.53,1.92,0l2.48,2.48c0.53,0.53,0.53,1.39,0,1.92l-9.68,9.68
				c-0.53,0.53-1.39,0.53-1.92,0l-2.48-2.48C34.22,78.67,34.22,77.81,34.75,77.28z"/>
		</g>
		<path class="st1" d="M80.19,117.61H28.65c-5.33,0-9.67-4.34-9.67-9.67V28.16c0-5.33,4.34-9.67,9.67-9.67h51.54
			c5.33,0,9.67,4.34,9.67,9.67v79.78C89.86,113.27,85.52,117.61,80.19,117.61z M28.65,24.72c-1.9,0-3.44,1.54-3.44,3.44v79.78
			c0,1.89,1.54,3.44,3.44,3.44h51.54c1.9,0,3.44-1.54,3.44-3.44V28.16c0-1.89-1.54-3.44-3.44-3.44H28.65z"/>
		<path class="st2" d="M116.98,51.08H99.29V37.7c0-3.56,2.9-6.46,6.46-6.46h4.76c3.56,0,6.46,2.9,6.46,6.46V51.08z M105.52,44.86
			h5.23V37.7c0-0.13-0.11-0.24-0.24-0.24h-4.76c-0.13,0-0.24,0.11-0.24,0.24V44.86z"/>
		<path class="st1" d="M108.14,108.65l-6.69-7.12c-1.39-1.49-2.16-3.42-2.16-5.45V44.86h17.69v51.22c0,2.03-0.77,3.97-2.16,5.45
			L108.14,108.65z M105.52,51.08v44.99c0,0.44,0.17,0.87,0.47,1.19l2.14,2.28l2.14-2.28c0.3-0.32,0.47-0.75,0.47-1.19V51.08H105.52z
			"/>
	</g>
</g>
</svg>
