<?xml version="1.0" encoding="utf-8"?>
<!-- Generator: Adobe Illustrator 25.2.3, SVG Export Plug-In . SVG Version: 6.00 Build 0)  -->
<svg version="1.1" xmlns="http://www.w3.org/2000/svg" xmlns:xlink="http://www.w3.org/1999/xlink" x="0px" y="0px"
	 viewBox="0 0 136 136" style="enable-background:new 0 0 136 136;" xml:space="preserve">
<style type="text/css">
	.st0{fill:#F4F4F5;}
	.st1{fill:#170B45;}
	.st2{fill:#55edb1;}
</style>
<g id="Слой_1">
</g>
<g id="Слой_2">
	<g>
		<circle class="st0" cx="97.24" cy="97.06" r="38.76"/>
		<rect x="3.11" y="43.15" class="st0" width="31.69" height="29.25"/>
		<path class="st2" d="M111.61,124.85c-8.39,0-15.21-6.82-15.21-15.21c0-8.39,6.82-15.21,15.21-15.21s15.21,6.82,15.21,15.21
			C126.83,118.02,120,124.85,111.61,124.85z M111.61,100.63c-4.96,0-9,4.04-9,9s4.04,9,9,9s9-4.04,9-9S116.58,100.63,111.61,100.63z
			"/>
		<path class="st2" d="M35.6,124.85c-8.39,0-15.21-6.82-15.21-15.21c0-8.39,6.82-15.21,15.21-15.21c8.39,0,15.21,6.82,15.21,15.21
			C50.81,118.02,43.99,124.85,35.6,124.85z M35.6,100.63c-4.96,0-9,4.04-9,9s4.04,9,9,9s9-4.04,9-9S40.56,100.63,35.6,100.63z"/>
		<polygon class="st1" points="89.47,112.74 57.74,112.74 59.81,106.53 89.47,106.53 		"/>
		<path class="st2" d="M78.92,99.41l-8.16-19.61c-0.57-1.37-1.9-2.25-3.38-2.25l-16.63,0.14c-2.19,0.01-4.29-0.98-5.65-2.74
			c-1.36-1.76-1.81-4.01-1.23-6.16l5.9-21.92c0.75-2.78,2.85-4.89,5.63-5.65c2.78-0.75,5.67,0,7.72,2.02l8.45,8.33h16.35v6.21H69.03
			L58.76,47.66c-0.66-0.65-1.43-0.54-1.73-0.45c-0.3,0.08-1.02,0.37-1.26,1.27l-5.9,21.92c-0.1,0.36,0.05,0.62,0.15,0.75
			c0.1,0.13,0.4,0.34,0.69,0.33l16.65-0.14c4.03,0,7.6,2.39,9.14,6.08l9.05,22H78.92z"/>
		<path class="st1" d="M29.56,77.48H8.35c-4.6,0-8.35-3.74-8.35-8.35V47.93c0-4.6,3.74-8.35,8.35-8.35h21.21
			c4.6,0,8.35,3.75,8.35,8.35v21.21C37.91,73.74,34.16,77.48,29.56,77.48z M8.35,45.79c-1.18,0-2.14,0.96-2.14,2.14v21.21
			c0,1.18,0.96,2.14,2.14,2.14h21.21c1.18,0,2.14-0.96,2.14-2.14V47.93c0-1.18-0.96-2.14-2.14-2.14H8.35z"/>
		<path class="st1" d="M120.8,92.11c-5.41-2.84-12-3-17.52-0.42l-2.62-5.63c3.45-1.6,7.13-2.42,10.96-2.42
			c4.2,0,8.38,1.03,12.07,2.97L120.8,92.11z"/>
		<path class="st1" d="M111.5,59.99c-5.49,0-9.81,5-8.66,10.69c0.84,4.14,4.67,7,8.89,7h1.61c1.13,0,2.04-0.91,2.04-2.04V62.03
			c0-1.13-0.91-2.04-2.04-2.04H111.5z"/>
		<path class="st1" d="M64.45,99.41l-3.93-9.45l-46.26-0.03l-4.15-6.21l50.26-0.07c2.58,0,4.89,1.54,5.88,3.92l4.65,11.84H64.45z"/>
		<path class="st2" d="M66.3,26.16h2.43c1.03,0,1.82-0.95,1.64-1.97c-1.07-5.76-6.75-9.91-13.07-8.47
			c-3.87,0.88-7.02,4.03-7.91,7.91c-1.44,6.32,2.7,12,8.47,13.07c1.02,0.19,1.97-0.6,1.97-1.64v-2.43
			C59.83,29.06,62.73,26.16,66.3,26.16z"/>
		<path class="st1" d="M100.47,92.98L84.23,53.89c-0.76-1.82-0.56-3.89,0.54-5.54c1.1-1.65,2.93-2.63,4.91-2.63h5.2v6.21h-4.74
			L106.2,90.6L100.47,92.98z"/>
	</g>
</g>
</svg>
