<?xml version="1.0" encoding="utf-8"?>
<!-- Generator: Adobe Illustrator 25.2.3, SVG Export Plug-In . SVG Version: 6.00 Build 0)  -->
<svg version="1.1" xmlns="http://www.w3.org/2000/svg" xmlns:xlink="http://www.w3.org/1999/xlink" x="0px" y="0px"
	 viewBox="0 0 136 136" style="enable-background:new 0 0 136 136;" xml:space="preserve">
<style type="text/css">
	.st0{fill:#F4F4F5;}
	.st1{fill:#170B45;}
	.st2{fill:#55edb1;}
</style>
<g id="Слой_1">
</g>
<g id="Слой_2">
	<g>
		<circle class="st0" cx="97.12" cy="97.12" r="38.88"/>
		<path class="st0" d="M33.9,29.77c-0.83,0-1.63,0.09-2.42,0.22v14.08h16.73C48.21,36.18,41.8,29.77,33.9,29.77z"/>
		<path class="st1" d="M36.6,109.22H25.77c-3.71,0-6.74-3.02-6.74-6.74V86.26c0-3.71,3.02-6.74,6.74-6.74H36.6
			c3.71,0,6.74,3.02,6.74,6.74v16.22C43.34,106.2,40.32,109.22,36.6,109.22z M25.77,85.75c-0.28,0-0.51,0.23-0.51,0.51v16.22
			c0,0.28,0.23,0.51,0.51,0.51H36.6c0.28,0,0.51-0.23,0.51-0.51V86.26c0-0.28-0.23-0.51-0.51-0.51H25.77z"/>
		<path class="st1" d="M68.19,109.22H57.36c-3.71,0-6.74-3.02-6.74-6.74V68.57c0-3.72,3.02-6.74,6.74-6.74h10.83
			c3.71,0,6.74,3.02,6.74,6.74v33.92C74.93,106.2,71.91,109.22,68.19,109.22z M57.36,68.06c-0.28,0-0.51,0.23-0.51,0.51v33.92
			c0,0.28,0.23,0.51,0.51,0.51h10.83c0.28,0,0.51-0.23,0.51-0.51V68.57c0-0.28-0.23-0.51-0.51-0.51H57.36z"/>
		<path class="st1" d="M101.2,109.22H90.36c-3.71,0-6.74-3.02-6.74-6.74V50.1c0-3.72,3.02-6.74,6.74-6.74h10.83
			c3.71,0,6.74,3.02,6.74,6.74v52.38C107.94,106.2,104.91,109.22,101.2,109.22z M90.36,49.59c-0.28,0-0.51,0.23-0.51,0.51v52.38
			c0,0.28,0.23,0.51,0.51,0.51h10.83c0.28,0,0.51-0.23,0.51-0.51V50.1c0-0.28-0.23-0.51-0.51-0.51H90.36z"/>
		<polygon class="st2" points="62.61,46.34 62.61,38.34 76.18,24.76 81.97,29.83 93.22,18.58 97.62,22.99 81.97,38.64 76.18,33.57 
					"/>
		<path class="st2" d="M29.05,67.65c-10.58,0-19.19-8.61-19.19-19.19s8.61-19.19,19.19-19.19v6.23c-7.14,0-12.96,5.81-12.96,12.96
			s5.81,12.96,12.96,12.96S42,55.61,42,48.47h6.23C48.23,59.05,39.62,67.65,29.05,67.65z"/>
		<path class="st1" d="M46.56,48.91H34.07c-3.27,0-5.93-2.65-5.93-5.93V27.88c0-1.69,1.35-3.07,3.04-3.11h0
			c10.53-0.25,19.39,7.01,21.24,17.28v0c0.3,1.68-0.16,3.4-1.27,4.72C50.01,48.13,48.34,48.91,46.56,48.91z M46.29,43.15
			C46.29,43.15,46.29,43.15,46.29,43.15C46.29,43.15,46.29,43.15,46.29,43.15z M34.37,42.68H46.2c-1.27-5.97-5.98-10.42-11.82-11.46
			V42.68z"/>
		<polygon class="st2" points="94.45,26.04 102.2,18.58 81.75,18.58 		"/>
	</g>
</g>
</svg>
