<?xml version="1.0" encoding="utf-8"?>
<!-- Generator: Adobe Illustrator 25.2.3, SVG Export Plug-In . SVG Version: 6.00 Build 0)  -->
<svg version="1.1" xmlns="http://www.w3.org/2000/svg" xmlns:xlink="http://www.w3.org/1999/xlink" x="0px" y="0px"
	 viewBox="0 0 136 136" style="enable-background:new 0 0 136 136;" xml:space="preserve">
<style type="text/css">
	.st0{fill:#F4F4F5;}
	.st1{fill:#170B45;}
	.st2{fill:#55edb1;}
</style>
<g id="Слой_1">
</g>
<g id="Слой_2">
	<g>
		<circle class="st0" cx="95.12" cy="97.12" r="38.88"/>
		<path class="st2" d="M55.92,68.18c-2.76,0-5.52-1.05-7.62-3.15c-4.2-4.2-4.2-11.03,0-15.23c4.2-4.2,11.03-4.2,15.23,0v0
			c4.2,4.2,4.2,11.03,0,15.23C61.44,67.13,58.68,68.18,55.92,68.18z M55.92,52.87c-1.16,0-2.33,0.44-3.21,1.33
			c-1.77,1.77-1.77,4.65,0,6.42c1.77,1.77,4.65,1.77,6.42,0c1.77-1.77,1.77-4.65,0-6.42C58.25,53.31,57.09,52.87,55.92,52.87z"/>
		<path class="st2" d="M82.16,94.41c-2.76,0-5.52-1.05-7.62-3.15c-4.2-4.2-4.2-11.03,0-15.23c4.2-4.2,11.03-4.2,15.23,0
			c2.04,2.03,3.16,4.74,3.16,7.62c0,2.88-1.12,5.58-3.16,7.62C87.67,93.36,84.91,94.41,82.16,94.41z M82.16,79.11
			c-1.16,0-2.33,0.44-3.21,1.33c-1.77,1.77-1.77,4.65,0,6.42c1.77,1.77,4.65,1.77,6.42,0c0.86-0.86,1.33-2,1.33-3.21
			c0-1.21-0.47-2.35-1.33-3.21C84.48,79.55,83.32,79.11,82.16,79.11z"/>
		
			<rect x="42.6" y="67.41" transform="matrix(0.7071 -0.7071 0.7071 0.7071 -29.65 69.4762)" class="st1" width="52.88" height="6.23"/>
		<path class="st1" d="M69.04,121.76c-3.66,0-7.03-1.67-9.24-4.59l-4.72-6.23c-1.17-1.55-3.09-2.34-5.01-2.08l-7.74,1.07
			c-3.64,0.5-7.2-0.7-9.79-3.29s-3.79-6.16-3.29-9.78l1.06-7.74c0.27-1.92-0.53-3.84-2.08-5.01L22,79.38
			c-2.92-2.21-4.59-5.58-4.59-9.25s1.67-7.03,4.59-9.25l6.23-4.72c1.55-1.17,2.34-3.09,2.08-5.01l-1.06-7.74
			c-0.5-3.63,0.7-7.19,3.29-9.78c2.59-2.59,6.16-3.79,9.79-3.29l7.74,1.06c1.92,0.26,3.84-0.53,5.01-2.08l4.72-6.23
			c2.21-2.92,5.58-4.59,9.24-4.59c3.66,0,7.03,1.67,9.25,4.59l4.72,6.23c1.17,1.55,3.08,2.34,5.01,2.08l7.74-1.06
			c3.62-0.5,7.19,0.7,9.79,3.29c2.59,2.59,3.79,6.16,3.29,9.78l-1.06,7.74c-0.26,1.92,0.53,3.84,2.08,5.01l6.23,4.72
			c2.92,2.21,4.59,5.58,4.59,9.25s-1.67,7.03-4.59,9.25l-6.23,4.72c-1.55,1.17-2.34,3.09-2.08,5.01l1.06,7.74
			c0.5,3.63-0.7,7.19-3.29,9.78c-2.59,2.59-6.17,3.79-9.79,3.29l-7.74-1.07c-1.94-0.26-3.84,0.53-5.01,2.08l-4.72,6.23
			C76.07,120.09,72.7,121.76,69.04,121.76z M50.79,102.58c3.6,0,7.04,1.68,9.25,4.59l4.72,6.23c1.02,1.35,2.59,2.13,4.28,2.13
			c1.7,0,3.26-0.78,4.28-2.13l4.72-6.23c2.53-3.34,6.67-5.06,10.83-4.48l7.74,1.07c1.69,0.23,3.33-0.33,4.53-1.52
			c1.2-1.2,1.75-2.85,1.52-4.53l-1.06-7.74c-0.57-4.15,1.15-8.29,4.49-10.83l6.23-4.72c1.35-1.03,2.13-2.59,2.13-4.28
			s-0.78-3.26-2.13-4.28l-6.23-4.72c-3.34-2.53-5.06-6.68-4.49-10.83l1.06-7.74c0.23-1.68-0.32-3.33-1.52-4.53
			c-1.2-1.2-2.84-1.76-4.53-1.52l-7.74,1.06c-4.14,0.58-8.3-1.15-10.83-4.48l-4.72-6.23c-1.02-1.35-2.59-2.13-4.28-2.13
			c-1.7,0-3.26,0.78-4.28,2.13l-4.72,6.23c-2.53,3.34-6.69,5.06-10.82,4.48l-7.74-1.06c-1.69-0.24-3.33,0.32-4.53,1.52
			c-1.2,1.2-1.75,2.85-1.52,4.53l1.06,7.74c0.57,4.15-1.15,8.29-4.49,10.83l-6.23,4.72c-1.35,1.03-2.13,2.59-2.13,4.28
			s0.78,3.26,2.13,4.28l6.23,4.72c3.34,2.53,5.06,6.68,4.49,10.83l-1.06,7.74c-0.23,1.68,0.32,3.33,1.52,4.53
			c1.2,1.2,2.84,1.76,4.53,1.52l7.74-1.07C49.74,102.62,50.26,102.58,50.79,102.58z"/>
	</g>
</g>
</svg>
