<?xml version="1.0" encoding="utf-8"?>
<!-- Generator: Adobe Illustrator 25.2.3, SVG Export Plug-In . SVG Version: 6.00 Build 0)  -->
<svg version="1.1" xmlns="http://www.w3.org/2000/svg" xmlns:xlink="http://www.w3.org/1999/xlink" x="0px" y="0px"
	 viewBox="0 0 136 136" style="enable-background:new 0 0 136 136;" xml:space="preserve">
<style type="text/css">
	.st0{fill:#F4F4F5;}
	.st1{fill:#170B45;}
	.st2{fill:#55edb1;}
</style>
<g id="Слой_1">
</g>
<g id="Слой_2">
	<g>
		<circle class="st0" cx="92.12" cy="97.12" r="38.88"/>
		<path class="st1" d="M60.31,119.37H40.5c-6.14,0-11.14-5.41-11.14-12.05V21.99c0-6.64,5-12.05,11.14-12.05h55.8
			c6.14,0,11.13,5.41,11.13,12.05v53.01l-6.23-4.15V21.99c0-3.21-2.2-5.82-4.91-5.82H40.5c-2.71,0-4.91,2.61-4.91,5.82v85.33
			c0,3.21,2.2,5.82,4.91,5.82h17.73L60.31,119.37z"/>
		<rect x="59.59" y="33.99" class="st1" width="30.34" height="6.23"/>
		<rect x="59.59" y="53.9" class="st1" width="30.34" height="6.23"/>
		<path class="st2" d="M80.35,13.03h-23.9c-1.72,0-3.11-1.39-3.11-3.11v0c0-1.72,1.39-3.11,3.11-3.11h23.9
			c1.72,0,3.11,1.39,3.11,3.11v0C83.46,11.64,82.07,13.03,80.35,13.03z"/>
		<g>
			<path class="st2" d="M93.08,133.46c-1.59,0-3.19-0.13-4.76-0.39c-2.03-0.33-3.67-1.93-4.09-3.98l-0.96-4.76
				c-0.98-0.47-1.92-1.02-2.81-1.63l-4.6,1.54c-1.99,0.67-4.19,0.04-5.49-1.55c-2.03-2.47-3.63-5.25-4.76-8.23
				c-0.73-1.93-0.17-4.15,1.4-5.54l3.64-3.21c-0.04-0.54-0.06-1.08-0.06-1.63c0-0.55,0.02-1.09,0.06-1.63L67,99.25
				c-1.57-1.38-2.13-3.61-1.4-5.54c1.13-2.99,2.73-5.76,4.76-8.23c1.31-1.59,3.52-2.21,5.49-1.55l4.61,1.55
				c0.89-0.61,1.84-1.15,2.81-1.63l0.96-4.76c0.42-2.05,2.06-3.65,4.09-3.98c3.13-0.51,6.37-0.51,9.51,0
				c2.03,0.33,3.68,1.94,4.09,3.98l0.96,4.75c0.97,0.47,1.92,1.02,2.81,1.62l4.61-1.55c1.98-0.66,4.19-0.04,5.49,1.55
				c2.03,2.47,3.63,5.24,4.76,8.23c0.73,1.94,0.16,4.16-1.4,5.54l-3.64,3.21c0.04,0.54,0.06,1.08,0.06,1.63
				c0,0.55-0.02,1.09-0.06,1.62l3.64,3.21c1.56,1.38,2.13,3.61,1.4,5.53c-1.13,2.99-2.73,5.76-4.76,8.24
				c-1.31,1.59-3.52,2.22-5.5,1.55l-4.6-1.54c-0.89,0.61-1.84,1.15-2.81,1.62l-0.97,4.76c-0.41,2.04-2.06,3.65-4.09,3.98
				C96.26,133.33,94.66,133.46,93.08,133.46z M95.82,127.85C95.82,127.85,95.82,127.85,95.82,127.85L95.82,127.85z M90.17,127.04
				c1.93,0.25,3.88,0.25,5.81,0l0.92-4.55c0.31-1.57,1.39-2.91,2.89-3.59c0.97-0.44,1.89-0.97,2.75-1.59
				c1.33-0.96,3.04-1.22,4.56-0.71l4.41,1.48c1.18-1.55,2.15-3.24,2.91-5.03l-3.48-3.08c-1.2-1.06-1.82-2.67-1.67-4.29
				c0.05-0.53,0.08-1.06,0.08-1.6c0-0.54-0.03-1.07-0.08-1.6c-0.16-1.63,0.46-3.23,1.67-4.29l3.48-3.08
				c-0.75-1.79-1.73-3.48-2.91-5.03l-4.4,1.48c-1.53,0.51-3.23,0.25-4.56-0.71c-0.86-0.62-1.79-1.15-2.75-1.59
				c-1.49-0.68-2.57-2.02-2.89-3.59l-0.92-4.55c-1.93-0.24-3.89-0.24-5.81,0l-0.92,4.55c-0.32,1.57-1.4,2.91-2.89,3.59
				c-0.97,0.44-1.89,0.97-2.75,1.59c-1.33,0.96-3.04,1.22-4.56,0.71l-4.41-1.48c-1.18,1.55-2.16,3.24-2.91,5.03l3.48,3.07
				c1.2,1.07,1.83,2.67,1.66,4.3c-0.05,0.52-0.08,1.05-0.08,1.59c0,0.54,0.03,1.07,0.08,1.6c0.16,1.62-0.46,3.23-1.66,4.29
				l-3.48,3.08c0.75,1.8,1.73,3.48,2.91,5.03l4.4-1.48c1.52-0.51,3.23-0.25,4.56,0.71c0.86,0.62,1.78,1.15,2.75,1.59
				c1.48,0.68,2.57,2.01,2.89,3.58L90.17,127.04z M103.02,123.72L103.02,123.72C103.02,123.73,103.02,123.73,103.02,123.72z
				 M70.69,106.29C70.69,106.29,70.69,106.29,70.69,106.29C70.69,106.29,70.69,106.29,70.69,106.29z M70.69,101.89
				C70.69,101.89,70.69,101.89,70.69,101.89C70.69,101.89,70.69,101.89,70.69,101.89z M112.28,89.83L112.28,89.83L112.28,89.83
				L112.28,89.83z M95.82,80.32C95.82,80.32,95.82,80.33,95.82,80.32L95.82,80.32z"/>
			<path class="st1" d="M93.08,114.71c-5.86,0-10.62-4.77-10.62-10.62c0-5.86,4.77-10.62,10.62-10.62c5.86,0,10.62,4.77,10.62,10.62
				C103.7,109.94,98.94,114.71,93.08,114.71z M93.08,99.69c-2.42,0-4.39,1.97-4.39,4.39c0,2.42,1.97,4.39,4.39,4.39
				c2.42,0,4.39-1.97,4.39-4.39C97.47,101.66,95.5,99.69,93.08,99.69z"/>
		</g>
		<path class="st1" d="M49.12,40.53H48.7c-1.78,0-3.22-1.53-3.22-3.43v0c0-1.89,1.44-3.43,3.22-3.43h0.41
			c1.78,0,3.22,1.53,3.22,3.43v0C52.34,39,50.9,40.53,49.12,40.53z"/>
		<path class="st1" d="M49.12,60.44H48.7c-1.78,0-3.22-1.53-3.22-3.43v0c0-1.89,1.44-3.43,3.22-3.43h0.41
			c1.78,0,3.22,1.53,3.22,3.43v0C52.34,58.9,50.9,60.44,49.12,60.44z"/>
	</g>
</g>
</svg>
